<?xml version="1.0" encoding="utf-8"?>
<!-- Generator: Adobe Illustrator 26.0.3, SVG Export Plug-In . SVG Version: 6.00 Build 0)  -->
<svg version="1.1" id="Layer_1" xmlns="http://www.w3.org/2000/svg" xmlns:xlink="http://www.w3.org/1999/xlink" x="0px" y="0px"
	 viewBox="0 0 33.9 24.1" style="enable-background:new 0 0 33.9 24.1;" xml:space="preserve">
<style type="text/css">
	.st0{fill:#202020;}
</style>
<path class="st0" d="M31.2,0H2.8C1.2,0,0,1.3,0,2.9v18.2c0,1.6,1.2,2.9,2.8,2.9h28.4c1.5,0,2.8-1.3,2.8-2.9V2.9
	C33.9,1.3,32.7,0,31.2,0z M13.8,12L1.3,21.7c-0.1-0.2-0.1-0.4-0.1-0.5V2.9c0-0.2,0.1-0.5,0.2-0.7L11,9.3l1-0.8L2.1,1.4
	c0.2-0.1,0.4-0.1,0.6-0.1h28.4c0.2,0,0.4,0,0.6,0.1L17,13l-2.3-1.7 M32.8,21.2c0,0.2,0,0.4-0.1,0.6l-10-7.2l-1,0.8l10.2,7.3
	c-0.2,0.1-0.5,0.2-0.7,0.2H2.8c-0.3,0-0.5-0.1-0.8-0.2l12.8-9.8l1.8,1.4c0.2,0.2,0.5,0.2,0.7,0l1.8-1.4L32.6,2.2
	c0.1,0.2,0.2,0.5,0.2,0.7L32.8,21.2z"/>
</svg>
